<svg width="106" height="41" viewBox="0 0 106 41" fill="none" xmlns="http://www.w3.org/2000/svg">
<g clip-path="url(#clip0_2_584)">
<g clip-path="url(#clip1_2_584)">
<rect width="34.4241" height="34.4282" rx="17.188" transform="matrix(0.979139 0.203192 -0.209552 0.977797 7.2146 0)" fill="white"/>
<circle cx="11.7321" cy="11.7321" r="11.7321" transform="matrix(0.979139 0.203192 -0.209552 0.977797 8.32568 30.2856)" fill="#74B45E"/>
<circle cx="11.7321" cy="11.7321" r="11.0388" transform="matrix(0.979139 0.203192 -0.209552 0.977797 7.52051 27.8601)" stroke="#4E5352" stroke-width="1.38647"/>
<circle cx="13.9793" cy="13.9793" r="13.9793" transform="matrix(0.979139 0.203192 -0.209552 0.977797 23.8486 24.4418)" fill="#74B45E"/>
<circle cx="13.9793" cy="13.9793" r="13.2861" transform="matrix(0.979139 0.203192 -0.209552 0.977797 25.387 21.3978)" stroke="#4E5352" stroke-width="1.38647"/>
<circle cx="11.7321" cy="11.7321" r="11.7321" transform="matrix(0.979139 0.203192 -0.209552 0.977797 -3.896 26.3408)" fill="#74B45E"/>
<circle cx="11.7321" cy="11.7321" r="11.0388" transform="matrix(0.979139 0.203192 -0.209552 0.977797 -4.7832 23.6584)" stroke="#4E5352" stroke-width="1.38647"/>
<circle cx="9.30317" cy="9.30317" r="9.30317" transform="matrix(-0.71864 -0.691165 0.697267 -0.720878 15.032 12.8375)" fill="#FFD645"/>
<circle cx="9.30317" cy="9.30317" r="8.60993" transform="matrix(-0.71864 -0.691165 0.697267 -0.720878 14.0674 15.3969)" stroke="#4E5352" stroke-width="1.38647"/>
<path d="M20.7421 23.3192C22.199 25.3565 22.1781 29.7428 21.9854 31.6813L23.2221 33.1816C23.3227 33.0285 23.7092 32.3125 24.4512 30.6724C25.1931 29.0324 23.4756 24.2643 22.5241 22.0853L21.2736 21.4641C21.1581 21.4318 20.8902 21.7577 20.7421 23.3192Z" stroke="#525152" stroke-width="0.866543"/>
<path d="M22.3011 13.271C18.2251 13.5964 19.093 18.5142 21.4115 20.0883L21.9718 18.2311L22.2583 15.724L21.1381 15.3146L21.6029 14.6368C21.792 14.4061 22.1965 13.8101 22.3011 13.271Z" fill="#85C45D"/>
<path d="M22.404 16.0075L21.6177 20.06L21.4049 21.1566C21.3866 21.2511 21.2707 21.2884 21.2011 21.2221L20.8843 20.9203C19.8284 19.8357 17.9251 17.0735 18.7584 14.7021C19.5501 12.4493 21.718 12.4453 22.8544 12.7562C22.9372 12.7789 22.9646 12.8788 22.909 12.9445L20.8254 15.4041C20.7652 15.4752 20.8037 15.5842 20.8951 15.6013L22.3077 15.8659C22.3737 15.8783 22.4168 15.9417 22.404 16.0075Z" stroke="#525152" stroke-width="0.866543"/>
<path d="M28.4835 16.9154C24.0109 13.5962 21.9859 17.9355 22.6395 20.5891L24.4321 19.8332L26.5556 18.4509L26.1665 17.3264L26.9849 17.2509C27.2828 17.2492 27.9998 17.1796 28.4835 16.9154Z" fill="#85C45D"/>
<path d="M26.4268 18.7439L22.7905 20.7294L21.8065 21.2666C21.7217 21.3129 21.6197 21.2475 21.6272 21.1516L21.6613 20.7146C21.8361 19.2079 22.7765 15.976 25.1396 15.1016C27.3847 14.2709 28.7548 15.9379 29.2304 17.0119C29.265 17.0901 29.2048 17.1752 29.1189 17.1743L25.899 17.1423C25.806 17.1413 25.7458 17.2407 25.7901 17.322L26.4758 18.5791C26.5078 18.6379 26.4858 18.7116 26.4268 18.7439Z" stroke="#525152" stroke-width="0.866543"/>
<path d="M29.4865 23.3177C29.4974 19.8445 25.0032 20.9168 22.7547 21.8871L24.5595 22.5927L27.0388 23.0784L27.5506 21.9986L28.1855 22.5146C28.3986 22.721 28.9573 23.1705 29.4865 23.3177Z" fill="#85C45D"/>
<path d="M26.7422 23.1997L22.7641 22.0936L21.6877 21.7943C21.595 21.7685 21.5683 21.6503 21.6409 21.5866L21.9715 21.2961C23.1523 20.3344 26.0872 18.6656 28.3808 19.6835C30.5598 20.6506 30.3652 22.8042 29.9503 23.9079C29.9201 23.9883 29.8177 24.0075 29.7572 23.9471L27.4899 21.6802C27.4244 21.6147 27.3119 21.6442 27.2865 21.7336L26.8926 23.1154C26.8742 23.1799 26.8068 23.2177 26.7422 23.1997Z" stroke="#525152" stroke-width="0.866543"/>
<path d="M16.1135 14.5634C13.0179 18.2247 17.3572 20.5391 19.9309 20.261L19.1319 18.5006L17.6972 16.4319L16.5786 16.8582L16.4842 16.0453C16.4756 15.7484 16.3894 15.0364 16.1135 14.5634Z" fill="#85C45D"/>
<path d="M17.9939 16.5502L20.068 20.1057L20.6292 21.0678C20.6775 21.1507 20.6143 21.2546 20.5179 21.2504L20.079 21.2314C18.5642 21.1089 15.302 20.2827 14.3711 17.9577C13.4868 15.749 15.1271 14.3265 16.1931 13.8157C16.2708 13.7785 16.3574 13.8356 16.3585 13.9212L16.4 17.131C16.4012 17.2238 16.5022 17.2803 16.5827 17.2334L17.8276 16.507C17.8858 16.4731 17.9602 16.4924 17.9939 16.5502Z" stroke="#525152" stroke-width="0.866543"/>
<path d="M13.7902 26.1134C16.1465 28.6582 19.7344 24.6323 19.7344 22.6041L17.9215 23.3096L15.7602 24.6322L16.1174 25.7673L15.2974 25.8199C14.9996 25.8133 14.2811 25.8628 13.7902 26.1134Z" fill="#85C45D"/>
<path d="M15.8957 24.3429L19.5859 22.4596L20.5844 21.95C20.6704 21.9061 20.7706 21.9744 20.7604 22.0701L20.714 22.506C20.4969 24.0074 19.466 27.2123 17.0795 28.0204C14.8123 28.788 13.4899 27.083 13.0448 25.9959C13.0124 25.9168 13.075 25.8334 13.1608 25.8367L16.378 25.9589C16.471 25.9624 16.534 25.8648 16.4919 25.7822L15.8421 24.5062C15.8117 24.4466 15.8357 24.3735 15.8957 24.3429Z" stroke="#525152" stroke-width="0.866543"/>
<path d="M12.7433 19.167C11.8608 24.5891 18.225 23.7213 19.2178 21.4827L17.5252 20.5425L15.135 19.7304L14.4835 20.7332L13.924 20.1368C13.7405 19.9037 13.2476 19.3835 12.7433 19.167Z" fill="#85C45D"/>
<path d="M15.4458 19.65L19.2369 21.277L20.2627 21.7173C20.3511 21.7552 20.3616 21.8759 20.2812 21.9295L19.9149 22.1736C18.6167 22.97 15.4866 24.2342 13.3518 22.919C11.3236 21.6695 11.805 19.5596 12.3638 18.5201C12.4045 18.4445 12.5085 18.439 12.5603 18.5071L14.5017 21.0574C14.5578 21.1311 14.6731 21.1168 14.7103 21.0315L15.2856 19.7136C15.3125 19.652 15.3842 19.6235 15.4458 19.65Z" stroke="#525152" stroke-width="0.866543"/>
<circle cx="17.2237" cy="17.2237" r="16.5304" transform="matrix(0.979139 0.203192 -0.209552 0.977797 7.2146 0)" stroke="#4E5352" stroke-width="1.38647"/>
</g>
</g>
<path d="M58.9216 14.6625C58.8692 14.6495 58.7448 14.6167 58.5484 14.5643C58.3521 14.512 58.0869 14.4629 57.753 14.417C57.4192 14.3712 57.0591 14.3483 56.6729 14.3483C55.5992 14.3483 54.7776 14.7575 54.2081 15.5758C53.6385 16.3876 53.3537 17.6183 53.3537 19.2681C53.3537 20.8523 53.6483 22.0209 54.2375 22.7738C54.8267 23.5201 55.6712 23.8932 56.7711 23.8932C57.3602 23.8932 57.9396 23.7918 58.5092 23.5888C59.0787 23.3793 59.5664 23.1502 59.9723 22.9014C60.3848 22.6527 60.591 22.5152 60.591 22.489L61.7006 24.2958C61.7006 24.3351 61.4453 24.5512 60.9347 24.944C60.424 25.3302 59.7792 25.687 59.0002 26.0143C58.2211 26.3351 57.3635 26.4955 56.4274 26.4955C54.3783 26.4955 52.794 25.8899 51.6745 24.6788C50.5551 23.4612 49.9953 21.6936 49.9953 19.3761C49.9953 17.818 50.2736 16.4727 50.83 15.3401C51.3865 14.2076 52.1721 13.3401 53.1868 12.7378C54.2081 12.1356 55.4028 11.8344 56.7711 11.8344C57.4977 11.8344 58.2048 11.9064 58.8921 12.0505C59.5795 12.1879 60.1785 12.3418 60.6892 12.512C61.1998 12.6757 61.4551 12.764 61.4551 12.7771L61.3569 16.5971H59.3831L58.9216 14.6625ZM68.4371 15.1928C70.0541 15.1928 71.3012 15.6642 72.1784 16.6069C73.0622 17.5496 73.5041 18.8884 73.5041 20.6232C73.5041 21.8147 73.2815 22.849 72.8364 23.7263C72.3978 24.6035 71.7758 25.2778 70.9706 25.7492C70.1654 26.214 69.2194 26.4464 68.1327 26.4464C64.7153 26.4464 63.0067 24.6035 63.0067 20.9178C63.0067 19.7263 63.2293 18.7018 63.6744 17.8442C64.1261 16.9866 64.7612 16.3319 65.5795 15.8802C66.3978 15.4219 67.3503 15.1928 68.4371 15.1928ZM68.329 17.5987C67.5696 17.5987 67.0099 17.8442 66.6498 18.3352C66.2963 18.8262 66.1196 19.6543 66.1196 20.8196C66.1196 21.9325 66.2865 22.7476 66.6204 23.2648C66.9608 23.7819 67.4976 24.0405 68.2308 24.0405C68.9706 24.0405 69.514 23.7819 69.8609 23.2648C70.2079 22.7476 70.3814 21.8998 70.3814 20.7214C70.3814 19.674 70.2177 18.8916 69.8904 18.3745C69.5631 17.8573 69.0426 17.5987 68.329 17.5987ZM76.1555 12.0701C76.1555 11.5202 76.3257 11.0816 76.6661 10.7542C77.0065 10.4269 77.4124 10.2632 77.8838 10.2632C79.0098 10.2632 79.5728 10.8655 79.5728 12.0701C79.5728 12.6331 79.3993 13.0815 79.0524 13.4154C78.7119 13.7427 78.3224 13.9064 77.8838 13.9064C77.3339 13.9064 76.9083 13.7493 76.6072 13.4351C76.3061 13.1143 76.1555 12.6593 76.1555 12.0701ZM80.9378 24.6395V26.25H74.9084V24.6395L76.5188 24.1387V17.5987L74.9084 17.0979V15.4874L79.5335 15.3892V24.1387L80.9378 24.6395ZM86.6529 16.7738C86.6529 16.7476 86.8624 16.5971 87.2814 16.3221C87.7069 16.0471 88.1914 15.7984 88.7348 15.5758C89.2781 15.3467 89.8182 15.2321 90.355 15.2321C91.3174 15.2321 92.067 15.5496 92.6038 16.1846C93.1406 16.8196 93.409 17.6936 93.409 18.8065V24.1387L94.8231 24.6395V26.25H89.2847V24.6395L90.3943 24.1387V19.3564C90.3943 18.8851 90.2699 18.4988 90.0212 18.1977C89.7724 17.8966 89.4418 17.746 89.0294 17.746C88.6562 17.746 88.3092 17.8311 87.9884 18.0013C87.6742 18.165 87.4091 18.3483 87.193 18.5512C86.9835 18.7476 86.8788 18.8589 86.8788 18.8851V24.1387L87.9786 24.6395V26.25H82.2536V24.6395L83.8641 24.1387V17.5987L82.2536 17.0979V15.4874L86.5155 15.3892L86.6529 16.7738ZM98.0538 24.0405C98.0538 24.0536 98.2306 24.0896 98.5841 24.1485C98.9376 24.2075 99.3239 24.2369 99.7428 24.2369C100.843 24.2369 101.389 23.9096 101.383 23.2549C101.383 22.9603 101.229 22.7214 100.921 22.5381C100.614 22.3548 100.126 22.1518 99.4581 21.9293C98.7445 21.687 98.1586 21.4514 97.7003 21.2222C97.2486 20.9931 96.8558 20.669 96.5219 20.2501C96.188 19.8245 96.0211 19.2844 96.0211 18.6298C96.0211 17.4514 96.4139 16.584 97.1995 16.0275C97.9916 15.471 98.9802 15.1928 100.165 15.1928C100.702 15.1928 101.245 15.2354 101.795 15.3205C102.352 15.4056 102.816 15.5005 103.19 15.6053C103.569 15.7035 103.805 15.7656 103.897 15.7918L103.818 18.8065H102.109L101.815 17.5987C101.815 17.5856 101.664 17.5496 101.363 17.4907C101.069 17.4317 100.754 17.4023 100.42 17.4023C99.9752 17.4023 99.6315 17.4907 99.3893 17.6674C99.1536 17.8376 99.0358 18.0897 99.0358 18.4236C99.0358 18.7182 99.1897 18.9538 99.4973 19.1306C99.805 19.3073 100.293 19.4939 100.961 19.6903C101.674 19.9195 102.26 20.1388 102.718 20.3483C103.183 20.5577 103.579 20.8654 103.906 21.2713C104.24 21.6707 104.407 22.1911 104.407 22.8327C104.407 23.9718 103.988 24.8589 103.15 25.4939C102.312 26.1289 101.19 26.4464 99.7821 26.4464C99.2191 26.4464 98.6627 26.4137 98.1127 26.3482C97.5628 26.2827 97.1078 26.2173 96.7478 26.1518C96.3943 26.0863 96.1717 26.0372 96.08 26.0045V22.7345H97.8869L98.0538 24.0405Z" fill="#4E5352"/>
<defs>
<clipPath id="clip0_2_584">
<rect width="40.5" height="40.5" fill="white"/>
</clipPath>
<clipPath id="clip1_2_584">
<rect width="34.4241" height="34.4282" rx="17.188" transform="matrix(0.979139 0.203192 -0.209552 0.977797 7.2146 0)" fill="white"/>
</clipPath>
</defs>
</svg>
